HIERARCHY
ROOT Hips
{
	OFFSET 0.000000 0.000000 0.000000 
	CHANNELS 6 Xposition Yposition Zposition Zrotation Yrotation Xrotation
	JOINT LeftUpLeg
	{
		OFFSET 1.363060 -1.794630 0.839290 
		CHANNELS 3 Zrotation Yrotation Xrotation
		JOINT LeftLeg
		{
			OFFSET 2.448110 -6.726130 0.000000 
			CHANNELS 3 Zrotation Yrotation Xrotation
			JOINT LeftFoot
			{
				OFFSET 2.562200 -7.039590 0.000000 
				CHANNELS 3 Zrotation Yrotation Xrotation
				JOINT LeftToeBase
				{
					OFFSET 0.157640 -0.433110 2.322550 
					CHANNELS 3 Zrotation Yrotation Xrotation
					End Site
					{
						OFFSET 0.000000 0.000000 0.000000 
					}
				}
			}
		}
	}
	JOINT RightUpLeg
	{
		OFFSET -1.305520 -1.794630 0.839290 
		CHANNELS 3 Zrotation Yrotation Xrotation
		JOINT RightLeg
		{
			OFFSET -2.542530 -6.985550 0.000000 
			CHANNELS 3 Zrotation Yrotation Xrotation
			JOINT RightFoot
			{
				OFFSET -2.568260 -7.056230 0.000000 
				CHANNELS 3 Zrotation Yrotation Xrotation
				JOINT RightToeBase
				{
					OFFSET -0.164730 -0.452590 2.363150 
					CHANNELS 3 Zrotation Yrotation Xrotation
					End Site
					{
						OFFSET 0.000000 0.000000 0.000000 
					}
				}
			}
		}
	}
	JOINT Spine
	{
		OFFSET 0.028270 2.035590 -0.193380 
		CHANNELS 3 Zrotation Yrotation Xrotation
		JOINT Spine1
		{
			OFFSET 0.056720 2.048850 -0.042750 
			CHANNELS 3 Zrotation Yrotation Xrotation
			JOINT Neck1
			{
				OFFSET -0.054170 1.746240 0.172020 
				CHANNELS 3 Zrotation Yrotation Xrotation
				JOINT Head
				{
					OFFSET 0.104070 1.761360 -0.123970 
					CHANNELS 3 Zrotation Yrotation Xrotation
					End Site
					{
						OFFSET 0.000000 0.000000 0.000000 
					}
				}
			}
			JOINT LeftArm
			{
				OFFSET 3.362410 1.200890 -0.311210 
				CHANNELS 3 Zrotation Yrotation Xrotation
				JOINT LeftForeArm
				{
					OFFSET 4.983000 -0.000000 -0.000000 
					CHANNELS 3 Zrotation Yrotation Xrotation
					JOINT LeftHand
					{
						OFFSET 3.483560 -0.000000 -0.000000 
						CHANNELS 3 Zrotation Yrotation Xrotation
						JOINT LeftHandIndex1
						{
							OFFSET 0.715260 -0.000000 -0.000000 
							CHANNELS 3 Zrotation Yrotation Xrotation
							End Site
							{
								OFFSET 0.000000 0.000000 0.000000 
							}
						}
					}
				}
			}
			JOINT RightArm
			{
				OFFSET -3.136600 1.374050 -0.404650 
				CHANNELS 3 Zrotation Yrotation Xrotation
				JOINT RightForeArm
				{
					OFFSET -5.241900 -0.000000 -0.000000 
					CHANNELS 3 Zrotation Yrotation Xrotation
					JOINT RightHand
					{
						OFFSET -3.444170 -0.000000 -0.000000 
						CHANNELS 3 Zrotation Yrotation Xrotation
						JOINT RightHandIndex1
						{
							OFFSET -0.622530 -0.000000 -0.000000 
							CHANNELS 3 Zrotation Yrotation Xrotation
							End Site
							{
								OFFSET 0.000000 0.000000 0.000000 
							}
						}
					}
				}
			}
		}
	}
}
MOTION
Frames: 10
Frame Time: 0.041667
23.216792 18.099740 -41.869934 8.543881 70.584310 6.176478 -22.501742 -8.818895 12.595345 -3.774242 3.365827 13.436933 -6.400703 19.256994 -6.004108 0.817900 -5.770600 -16.120300 12.646847 28.747699 -17.641517 5.112582 -6.537165 15.989561 2.673368 -30.043868 -49.009360 -6.374600 -14.781800 46.467200 2.277201 -5.882743 -2.596602 1.378836 -3.054090 -9.398362 19.473531 -11.322089 18.015309 4.516700 -4.070900 7.838600 -41.699389 -41.245289 15.038266 19.009048 -18.092920 -4.687980 2.463348 0.260044 34.150967 -7.125000 0.000000 0.000000 19.539391 21.976815 2.388866 -18.020785 21.082074 -4.723130 1.489385 0.030514 19.672360 7.125000 0.000000 0.000000 
23.324283 18.090290 -41.810283 8.942053 70.683730 6.545959 -22.515593 -8.371306 12.731985 -3.706107 3.396020 13.575293 -6.338370 19.094964 -5.312482 1.017200 -6.416700 -17.998300 12.849310 27.890894 -17.712270 5.116367 -6.584269 16.048937 3.357216 -31.433478 -48.600093 -6.023600 -14.451100 45.076200 2.116443 -6.031482 -2.656449 1.262150 -3.133299 -9.443328 19.427698 -11.296178 17.869740 4.464100 -4.063600 7.763100 -41.495339 -41.180972 15.339321 19.035471 -18.138197 -4.674716 2.442723 0.279551 33.943968 -7.125000 0.000000 0.000000 20.079111 22.743135 0.965038 -17.648509 20.571769 -4.598408 1.510384 -0.035711 21.461256 7.125000 0.000000 0.000000 
23.433428 18.079187 -41.739291 9.220818 70.605237 6.888861 -22.249041 -7.209720 12.475175 -3.599601 3.411500 13.744108 -6.034421 18.295566 -4.316843 1.127200 -6.743700 -18.958200 12.707969 28.660708 -17.275090 5.161594 -6.512021 16.037717 2.547631 -30.990378 -50.192601 -6.333700 -14.744100 46.306700 2.356138 -6.092081 -2.705145 1.421327 -3.159865 -9.363220 19.361030 -11.301585 17.812272 4.432400 -4.071800 7.757000 -41.310256 -41.007011 16.235713 19.217492 -18.354746 -4.700866 2.399744 0.329148 32.859749 -7.125000 0.000000 0.000000 19.491886 21.963545 1.939068 -17.994452 21.058482 -4.731544 1.488350 0.014852 19.920419 7.125000 0.000000 0.000000 
23.543400 18.079777 -41.678931 9.379480 70.679595 7.163517 -21.903074 -6.103901 12.069038 -3.486428 3.467006 14.012003 -5.710488 17.439687 -3.452847 1.191300 -6.926100 -19.496500 13.628557 24.980513 -18.405070 5.081926 -6.741801 16.297012 4.268853 -31.876558 -46.656239 -5.864800 -14.296000 44.436700 2.242862 -6.120537 -2.818666 1.260174 -3.191515 -9.414529 19.540508 -11.434687 17.764778 4.474100 -4.119300 7.782500 -41.409870 -41.387186 15.729736 19.047391 -18.133726 -4.672024 2.439110 0.290004 33.598945 -7.125000 0.000000 0.000000 19.842446 22.590525 -0.149504 -17.449375 20.335268 -4.514089 1.512731 -0.068201 22.240116 7.125000 0.000000 0.000000 
23.653017 18.065603 -41.589985 9.920219 70.384310 7.790188 -22.092483 -5.984275 12.247681 -3.435685 3.560955 14.319454 -5.656979 17.318231 -3.620767 1.111600 -6.698400 -18.824800 13.381818 26.503481 -17.702881 5.130983 -6.636311 16.208128 3.689874 -32.144354 -48.427001 -5.974800 -14.403900 44.880500 2.090438 -5.989139 -2.823218 1.308440 -3.116645 -9.268700 19.711298 -11.619406 17.674689 4.488600 -4.187100 7.796900 -41.102293 -41.483990 16.367919 19.186034 -18.326085 -4.726434 2.426924 0.290671 32.894911 -7.125000 0.000000 0.000000 19.772491 22.215361 -0.607072 -17.444846 20.329250 -4.491790 1.511822 -0.069206 22.394160 7.125000 0.000000 0.000000 
23.766178 18.056980 -41.517576 10.525729 70.419745 8.358207 -22.498838 -6.590782 12.833302 -3.408572 3.678394 14.626545 -5.793444 17.696312 -3.807527 1.119200 -6.720500 -18.889800 14.171377 23.175112 -18.526493 5.011570 -6.829575 16.437744 5.496290 -33.228990 -44.720064 -5.381200 -13.800700 42.444800 2.100306 -6.053622 -2.798070 1.379836 -3.147321 -9.264022 19.720854 -11.801831 17.702056 4.464700 -4.259500 7.860800 -41.347593 -42.037247 15.305954 18.908502 -17.932992 -4.659916 2.489598 0.219828 34.404871 -7.125000 0.000000 0.000000 19.248837 21.511268 -0.147320 -17.723691 20.718206 -4.577275 1.493169 -0.026994 21.509974 7.125000 0.000000 0.000000 
23.878512 18.043868 -41.440324 10.789690 70.362075 8.720115 -22.515994 -6.514292 12.927662 -3.321436 3.817452 15.074147 -5.503528 16.944809 -3.524034 0.802200 -5.716400 -15.963900 14.244718 23.400888 -18.209706 5.024906 -6.806766 16.480158 5.263405 -33.093812 -45.201002 -5.528800 -13.955700 43.060100 2.573154 -6.155255 -2.894823 1.598894 -3.189706 -9.276327 19.662117 -11.792651 17.707656 4.470800 -4.263600 7.911500 -41.812341 -42.417844 13.970238 18.684542 -17.586311 -4.599177 2.546131 0.148304 36.129052 -7.125000 0.000000 0.000000 19.096021 22.052275 -1.389937 -17.455460 20.387604 -4.479378 1.501970 -0.069930 23.042786 7.125000 0.000000 0.000000 
23.992028 18.037372 -41.358111 11.046910 70.273375 9.205971 -22.416234 -6.303645 12.821694 -3.225541 3.961377 15.554235 -5.022698 15.697709 -3.221235 0.337900 -3.735700 -10.334100 14.263356 23.827019 -17.876299 5.048350 -6.769511 16.507383 4.751885 -32.468390 -45.900292 -5.817000 -14.248600 44.242700 2.957217 -6.291862 -3.520623 1.810641 -3.251609 -9.363116 19.626411 -11.535712 17.366130 4.509600 -4.208900 7.640400 -42.755892 -42.705031 11.977264 18.312377 -17.080538 -4.539656 2.631704 0.028304 38.940168 -7.125000 0.000000 0.000000 18.884509 21.769648 -0.614812 -17.560561 20.565294 -4.533004 1.493093 -0.042994 22.322661 7.125000 0.000000 0.000000 
24.108024 18.023551 -41.267275 11.424782 70.080363 9.773234 -22.344153 -5.787537 12.468546 -3.089711 4.183687 16.175825 -4.952292 15.508400 -2.681760 0.451000 -4.308500 -11.946300 14.183144 24.677259 -17.377585 5.081549 -6.682378 16.473524 4.044827 -31.699182 -46.968647 -6.126800 -14.550100 45.488700 2.395515 -6.158317 -3.383207 1.553636 -3.196110 -9.130659 19.608418 -11.905349 17.369942 4.339200 -4.317100 7.754600 -41.269630 -42.155772 16.143382 18.990035 -18.049665 -4.707992 2.481394 0.223867 34.092400 -7.125000 0.000000 0.000000 19.241344 21.685994 -2.008727 -17.415618 20.343914 -4.477365 1.501065 -0.080392 23.025473 7.125000 0.000000 0.000000 
24.226146 18.006424 -41.178211 11.775696 69.994608 10.061481 -22.302432 -5.019709 12.364910 -2.919159 4.393288 16.799993 -4.991744 15.620117 -1.755699 0.960300 -6.239800 -17.481700 14.947445 21.970885 -17.851792 4.984810 -6.819932 16.725722 4.992818 -31.631923 -44.213753 -5.811500 -14.243100 44.220300 2.962493 -6.486427 -4.000693 1.880206 -3.333285 -9.280651 20.060397 -11.547543 17.310951 4.654700 -4.187100 7.616400 -41.429923 -41.279941 16.519155 19.125486 -18.279796 -4.734950 2.438675 0.262735 33.412485 -7.125000 0.000000 0.000000 19.123984 22.149182 -1.607360 -17.344926 20.278874 -4.458571 1.502257 -0.091192 23.353919 7.125000 0.000000 0.000000 
